<?xml version="1.0" encoding="UTF-8" standalone="no"?>
<!DOCTYPE svg PUBLIC "-//W3C//DTD SVG 1.1//EN" "http://www.w3.org/Graphics/SVG/1.1/DTD/svg11.dtd">
<svg version="1.1" xmlns="http://www.w3.org/2000/svg" xmlns:xlink="http://www.w3.org/1999/xlink" preserveAspectRatio="xMidYMid meet" viewBox="0 0 640 640" width="640" height="640"><defs><path d="M382.94 50.14C393.55 50.14 402.14 58.74 402.14 69.34C402.14 104.43 402.14 190.5 402.14 225.58C402.14 236.19 393.55 244.78 382.94 244.78C352.5 244.78 280.36 244.78 249.91 244.78C239.31 244.78 230.71 236.19 230.71 225.58C230.71 190.5 230.71 104.43 230.71 69.34C230.71 58.74 239.31 50.14 249.91 50.14C280.36 50.14 352.5 50.14 382.94 50.14Z" id="a3MfLrOAAU"></path><path d="M316.43 408.03L316.43 658.03L70.64 658.03L76.05 507.96L86.86 489.11L220.64 432.35L316.43 408.03Z" id="b5BmaM8Rm"></path><path d="M509.29 244.78C509.29 291.6 424.47 329.61 320 329.61C215.53 329.61 130.71 291.6 130.71 244.78C130.71 197.97 215.53 159.96 320 159.96C424.47 159.96 509.29 197.97 509.29 244.78Z" id="c2r9IwKNyU"></path><path d="M316.43 408.03L316.43 658.03L562.22 658.03L556.81 507.96L546 489.11L412.22 432.35L316.43 408.03Z" id="a6kxhnZDIu"></path><path d="M316.43 628.25L308.24 628.25L301.12 623.87L291.33 525.32L304.68 505.61L314.47 502.33L296.67 497.95L294.41 477.15L316.43 461.82L316.43 628.25Z" id="a2epeVxTT9"></path><path d="M294.41 507.96L274.05 494.52L263.04 507.96L214.49 437.11L213.07 435.57L211.07 423.63L221.27 412.44L248.47 395.68L263.07 443.04L286.95 462.44L286.95 462.44L294.41 507.96Z" id="ctA4ExEXm"></path><path d="M419.79 435.57L418.37 437.11L369.82 507.96L358.81 494.52L338.45 507.96L345.91 462.44L369.79 443.04L384.39 395.68L411.58 412.44L421.79 423.63L421.79 423.63L419.79 435.57Z" id="aimAMWgZU"></path><path d="M421.79 329.61C421.79 395.64 374.58 449.25 316.43 449.25C258.28 449.25 211.07 395.64 211.07 329.61C211.07 263.57 258.28 209.96 316.43 209.96C374.58 209.96 421.79 263.57 421.79 329.61Z" id="fC9HXAnln"></path><path d="M318.04 628.25L326.23 628.25L333.35 623.87L343.14 525.32L329.79 505.61L320 502.33L337.8 497.95L340.06 477.15L318.04 461.82L318.04 628.25Z" id="c1QMoHSv1s"></path></defs><g><g><g><use xlink:href="#a3MfLrOAAU" opacity="1" fill="#201c1f" fill-opacity="1"></use></g><g><use xlink:href="#b5BmaM8Rm" opacity="1" fill="#686868" fill-opacity="1"></use><g><use xlink:href="#b5BmaM8Rm" opacity="1" fill-opacity="0" stroke="#000000" stroke-width="5" stroke-opacity="1"></use></g></g><g><use xlink:href="#c2r9IwKNyU" opacity="1" fill="#1d191d" fill-opacity="1"></use><g><use xlink:href="#c2r9IwKNyU" opacity="1" fill-opacity="0" stroke="#000000" stroke-width="2" stroke-opacity="1"></use></g></g><g><use xlink:href="#a6kxhnZDIu" opacity="1" fill="#686868" fill-opacity="1"></use><g><use xlink:href="#a6kxhnZDIu" opacity="1" fill-opacity="0" stroke="#000000" stroke-width="5" stroke-opacity="1"></use></g></g><g><use xlink:href="#a2epeVxTT9" opacity="1" fill="#1e211f" fill-opacity="1"></use><g><use xlink:href="#a2epeVxTT9" opacity="1" fill-opacity="0" stroke="#000000" stroke-width="2" stroke-opacity="1"></use></g></g><g><use xlink:href="#ctA4ExEXm" opacity="1" fill="#ffffff" fill-opacity="1"></use><g><use xlink:href="#ctA4ExEXm" opacity="1" fill-opacity="0" stroke="#000000" stroke-width="5" stroke-opacity="1"></use></g></g><g><use xlink:href="#aimAMWgZU" opacity="1" fill="#ffffff" fill-opacity="1"></use><g><use xlink:href="#aimAMWgZU" opacity="1" fill-opacity="0" stroke="#000000" stroke-width="5" stroke-opacity="1"></use></g></g><g><use xlink:href="#fC9HXAnln" opacity="1" fill="#1e1e1b" fill-opacity="1"></use></g><g><use xlink:href="#c1QMoHSv1s" opacity="1" fill="#1e211f" fill-opacity="1"></use><g><use xlink:href="#c1QMoHSv1s" opacity="1" fill-opacity="0" stroke="#000000" stroke-width="2" stroke-opacity="1"></use></g></g></g></g></svg>